<svg width="44" height="43" viewBox="0 0 44 43" fill="none" xmlns="http://www.w3.org/2000/svg">
<path fill-rule="evenodd" clip-rule="evenodd" d="M20.2359 0.928444C1.59259 2.76634 -6.61753 23.4468 6.20244 36.2776C10.0472 40.1256 16.1099 42.6373 21.5538 42.6373C24.9642 42.6373 24.8538 39.1634 21.4369 38.959C11.3232 38.3539 3.89591 31.0694 3.89591 21.7552C3.89591 7.67868 20.6969 -0.363473 32.7852 7.92667C33.5924 8.48025 33.6057 8.47443 31.5138 8.47667C28.607 8.47971 27.4325 9.47168 28.3394 11.1576C28.8561 12.1179 28.9952 12.1416 34.1007 12.1394L38.5066 12.1374L38.89 11.9721C40.0158 11.4866 40.0767 11.1827 40.0416 6.22614L40.0134 2.25926L39.8107 1.90154C39.0231 0.511965 37.095 0.521981 36.3515 1.91943C36.2271 2.1532 36.1992 2.51781 36.1992 3.90926C36.1992 5.90115 36.2573 5.83301 35.2088 5.06954C31.1702 2.12914 25.0966 0.449273 20.2359 0.928444ZM21.2719 8.64426C20.0623 9.17602 20.0943 8.97471 20.0967 16.0511L20.0988 22.1129L20.2754 22.4706C20.5214 22.9688 26.8867 28.9864 27.3669 29.1747C28.8973 29.775 30.5041 28.1843 29.8027 26.7633C29.6882 26.5315 28.6279 25.4612 26.791 23.7232L23.956 21.0409L23.9539 15.4956L23.9518 9.95031L23.7774 9.59259C23.3194 8.65321 22.2082 8.23261 21.2719 8.64426ZM41.2028 20.1564C39.4922 20.9659 39.9678 23.3737 41.875 23.5606C43.73 23.7424 44.7387 21.6098 43.3579 20.4253C42.7215 19.8794 41.983 19.7873 41.2028 20.1564ZM39.675 27.4633C38.2995 28.1529 38.3124 30.0145 39.6975 30.7034C41.0214 31.3619 42.6333 30.3019 42.4882 28.8681C42.3638 27.6383 40.8419 26.8783 39.675 27.4633ZM35.2732 33.6178C33.9936 34.2192 34.0064 36.1885 35.2941 36.843C36.3204 37.3645 37.6987 36.8008 38.0362 35.7215C38.5181 34.1807 36.8224 32.8897 35.2732 33.6178ZM28.9481 37.6822C27.0662 38.4572 27.6534 41.2064 29.7009 41.2064C31.7274 41.2064 32.349 38.5031 30.5052 37.7078C30.0449 37.5092 29.3941 37.4985 28.9481 37.6822Z" fill="#FFD042"/>
</svg>
