<svg width="56" height="41" viewBox="0 0 56 41" fill="none" xmlns="http://www.w3.org/2000/svg">
<path fill-rule="evenodd" clip-rule="evenodd" d="M26.6344 0.914704C20.3779 1.64722 16.7636 8.11819 19.5169 13.6579C22.4328 19.5248 30.6931 20.3899 34.8972 15.2685C39.9432 9.12151 34.6768 -0.0268611 26.6344 0.914704ZM29.3626 4.637C33.3113 5.83011 34.5544 10.6659 31.6489 13.5318C29.0133 16.1315 24.3741 15.3841 22.7829 12.1034C20.7197 7.84932 24.7727 3.25026 29.3626 4.637ZM9.28651 10.3185C3.46413 11.1932 1.20307 18.2598 5.52013 22.09C9.88679 25.964 16.8778 23.2521 17.3093 17.5169C17.6287 13.2712 13.6133 9.66832 9.28651 10.3185ZM44.1476 10.3238C38.4167 11.1696 36.1239 17.9163 40.2194 21.8828C44.7171 26.2389 52.2155 23.1375 52.1684 16.9406C52.1375 12.9108 48.2651 9.71602 44.1476 10.3238ZM11.7063 14.0992C15.0135 15.5942 13.9395 20.3385 10.2938 20.3385C6.64973 20.3385 5.58992 15.617 8.89317 14.0983C9.70623 13.7246 10.8783 13.725 11.7063 14.0992ZM46.4841 14.042C49.6846 15.4532 48.9458 20.0143 45.4601 20.3635C42.1368 20.6965 40.4265 16.4624 43.0883 14.4918C44.0245 13.7987 45.4915 13.6044 46.4841 14.042ZM26.6927 21.9419C21.9727 22.5071 17.6374 25.1032 15.2979 28.7653C15.2845 28.7861 14.8082 28.6223 14.2393 28.4014C7.81166 25.9048 0.774826 30.4868 0.0249102 37.6568C-0.229653 40.0901 1.51587 41.5432 3.022 40.152C3.53872 39.6747 3.58505 39.5376 3.6475 38.2995C3.90066 33.278 9.79073 29.3748 13.3271 31.885L13.5348 32.0325L13.2901 32.6674C12.4566 34.8299 11.965 38.5105 12.3806 39.4761C12.8813 40.6395 14.5677 40.8616 15.4215 39.8766C15.7429 39.5056 15.7648 39.4033 15.9425 37.4452C17.3758 21.6454 38.5706 21.6514 40.0107 37.452C40.1886 39.4039 40.2106 39.506 40.5318 39.8766C41.3856 40.8616 43.0719 40.6395 43.5726 39.4761C43.9683 38.5568 43.5752 35.3427 42.785 33.0361L42.4367 32.0195L42.6354 31.8785C46.1958 29.3512 52.0268 33.2758 52.306 38.3873C52.452 41.0628 55.5967 41.5588 55.9314 38.9592C56.8398 31.9005 48.5515 25.7456 41.7139 28.4014C41.145 28.6223 40.6675 28.7861 40.6528 28.7653C37.3477 24.0884 31.7236 21.3395 26.6927 21.9419Z" fill="#FFD042"/>
</svg>
