<svg width="80" height="78" viewBox="0 0 80 78" fill="none" xmlns="http://www.w3.org/2000/svg">
<path fill-rule="evenodd" clip-rule="evenodd" d="M11.8795 0.11518C-2.56265 1.95456 -4.24519 21.8076 9.69851 25.8475C11.9942 26.5126 23.3153 26.8109 24.553 26.2389C25.9584 25.5894 25.7099 24.2029 24.0078 23.1959L23.0682 22.64L23.712 21.9285C31.8288 12.9556 24.0245 -1.43158 11.8795 0.11518ZM45.6849 0.112589C38.0967 0.907991 31.8291 6.19751 29.8506 13.4756L29.4449 14.9683L29.3267 19.9214C29.1724 26.3846 28.8246 27.677 26.3889 30.8352C22.3877 36.023 23.7181 42.5959 29.2887 45.1615C30.9038 45.9053 31.0601 45.7097 27.7281 47.114C21.1447 49.8884 19.0669 51.7625 17.8787 55.9977L17.5458 57.1845L17.4776 64.5063C17.3954 73.3429 17.4867 73.8541 19.0439 73.2774C19.7808 73.0046 19.7864 72.9428 19.7864 65.0754C19.7864 52.8319 20.3748 52.0358 32.8921 47.3415L33.2442 47.2095V50.7001V54.1906L30.936 54.2397C28.3407 54.2949 27.7641 54.4694 26.9616 55.4425C26.0375 56.5633 26.0363 56.4825 27.1143 66.4435C27.6519 71.4098 28.0889 75.5244 28.0858 75.5874C28.0827 75.6503 21.9922 75.7017 14.5515 75.7017C4.83007 75.7017 0.913533 75.7501 0.634832 75.8739C-0.214732 76.2508 -0.210663 77.4405 0.641404 77.8186C1.19114 78.0624 78.7617 78.0595 79.3114 77.8155C80.6342 77.2286 79.914 75.7017 78.3146 75.7017H77.7057L77.6481 66.2907L77.5905 56.8797L77.237 55.7407C75.9404 51.5638 73.9078 49.7047 67.8984 47.2C64.3025 45.701 64.4687 45.8602 65.8378 45.2277C71.3084 42.7003 72.7257 36.0096 68.857 30.9755C66.5506 27.9745 66.1063 26.4499 66.1061 21.5354C66.106 15.7399 65.7048 13.2298 64.3258 10.3944C60.9241 3.40073 53.481 -0.704759 45.6849 0.112589ZM16.2462 2.54238C24.6888 4.64542 27.6512 14.9905 21.5206 20.9613C20.2385 22.2099 20.0289 23.6771 21.0741 24.0868C21.6024 24.2938 12.1527 24.1744 11.1014 23.9609C6.06928 22.9383 2.25994 18.3087 2.25994 13.2156C2.25994 6.06995 9.18664 0.784086 16.2462 2.54238ZM50.8489 2.5311C53.0255 2.97079 56.4042 4.3781 56.4042 4.84477C56.4042 5.09898 55.2228 6.72087 53.994 8.15378C48.8869 14.1092 41.4014 17.8419 34.144 18.0519L31.5229 18.1278V17.368C31.5229 8.08002 41.2716 0.595713 50.8489 2.5311ZM59.7639 7.57083C62.1287 10.1661 63.5845 13.5937 63.6504 16.7209L63.6808 18.1688L62.2948 18.213C59.7547 18.2942 57.1123 17.5841 54.9952 16.2514C53.6503 15.4048 52.492 15.6158 52.492 16.7075C52.492 17.4944 54.6997 18.8945 57.127 19.6471L58.749 20.15L58.7502 23.2407L58.7515 26.3311L58.287 27.2273C57.6725 28.4127 56.3578 29.7721 55.1584 30.4622L54.1882 31.0205L53.4575 30.287C52.046 28.87 47.6596 28.7135 46.1255 30.0253C45.0628 30.9339 44.648 32.7059 45.2332 33.836C46.7077 36.6829 53.0762 36.627 54.1966 33.7571C54.2994 33.4934 54.6315 33.2092 55.1147 32.9707C55.531 32.7652 56.4495 32.1797 57.1559 31.6696C58.7043 30.5514 58.6333 30.5591 58.3368 31.5423C57.4961 34.3286 55.3199 36.5647 52.4734 37.5663L51.3184 37.9729L48.0321 38.0276C41.6364 38.1343 38.3849 36.2888 36.8077 31.6566L36.4703 30.666L36.4098 25.4603L36.349 20.2544L36.6354 20.1741C36.7928 20.1301 37.5202 19.9793 38.2518 19.8393C45.5334 18.4455 52.7547 13.8072 57.2828 7.61564L58.3133 6.20681L58.6593 6.4726C58.8497 6.61876 59.3467 7.11301 59.7639 7.57083ZM8.04993 12.4536C7.37266 13.1132 7.87279 14.2824 8.83236 14.2824C9.43468 14.2824 9.92776 13.8022 9.92776 13.2156C9.92776 12.629 9.43468 12.1488 8.83236 12.1488C8.5715 12.1488 8.22379 12.2843 8.04993 12.4536ZM12.7445 12.4536C12.5707 12.6229 12.4315 12.9616 12.4315 13.2156C12.4315 13.4697 12.5707 13.8083 12.7445 13.9776C12.9184 14.147 13.2661 14.2824 13.5269 14.2824C13.7878 14.2824 14.1355 14.147 14.3094 13.9776C14.4832 13.8083 14.6223 13.4697 14.6223 13.2156C14.6223 12.9616 14.4832 12.6229 14.3094 12.4536C14.1355 12.2843 13.7878 12.1488 13.5269 12.1488C13.2661 12.1488 12.9184 12.2843 12.7445 12.4536ZM17.4391 12.4536C17.2652 12.6229 17.1261 12.9616 17.1261 13.2156C17.1261 13.4697 17.2652 13.8083 17.4391 13.9776C17.613 14.147 17.9607 14.2824 18.2215 14.2824C18.4824 14.2824 18.8301 14.147 19.004 13.9776C19.1778 13.8083 19.3169 13.4697 19.3169 13.2156C19.3169 12.9616 19.1778 12.6229 19.004 12.4536C18.8301 12.2843 18.4824 12.1488 18.2215 12.1488C17.9607 12.1488 17.613 12.2843 17.4391 12.4536ZM34.1831 25.262C34.1831 32.974 35.2436 35.7307 39.1947 38.2888C40.4102 39.0758 40.4124 39.0836 39.7947 40.4839C39.2249 41.7762 38.5186 42.4195 36.7415 43.2649L35.1022 44.0447L33.5863 43.9569C26.9026 43.57 24.117 37.4139 28.2238 32.1059C30.5997 29.0351 31.5229 26.2811 31.5229 22.2637V20.3786H32.853H34.1831V25.262ZM63.8055 22.9314C63.9498 27.0343 64.7327 29.3233 66.9721 32.19C69.6185 35.5774 69.5219 39.1626 66.7105 41.9101C63.0332 45.5043 56.328 44.1546 55.0304 39.5591L54.8734 39.0032L55.9479 38.2882C57.9992 36.923 59.5586 34.9042 60.4224 32.4948L60.8595 31.2756L60.9061 26.0176C60.9618 19.7225 60.7878 20.3786 62.4023 20.3786H63.7157L63.8055 22.9314ZM51.8801 31.7878C52.8358 32.9383 51.9914 33.6379 49.6471 33.6379H47.9397L47.5556 33.2637C46.9519 32.6759 47.0834 31.9607 47.8757 31.5207C48.5082 31.1695 51.5343 31.3713 51.8801 31.7878ZM47.5627 40.1151C49.6283 40.1151 51.6435 40.0572 52.041 39.9865L52.7637 39.8578L52.8738 40.2913C53.4616 42.6042 55.2042 44.3027 58.3211 45.6009L59.6904 46.1712V47.4523V48.7336L59.26 48.8955C59.0234 48.9845 57.9495 49.2538 56.8736 49.4938C50.3564 50.948 42.3514 50.8459 36.3348 49.232L35.435 48.9906V47.6306V46.2707L36.3348 45.8855C39.6196 44.4788 40.685 43.6431 41.6921 41.6835C42.0376 41.0109 42.3204 40.3237 42.3204 40.1564C42.3204 39.8763 42.3799 39.8624 43.0637 39.9834C43.4726 40.0558 45.4971 40.1151 47.5627 40.1151ZM66.3689 48.956C75.2202 52.6548 75.3332 52.8772 75.3366 66.5955L75.339 75.7017H71.7731H68.2073L69.1961 66.6717C70.3889 55.7813 70.3776 55.6318 68.2844 54.616L67.4532 54.2126H64.6673H61.8812V50.7072C61.8812 48.6536 61.9413 47.2019 62.0264 47.2019C62.1062 47.2019 64.0604 47.9912 66.3689 48.956ZM59.6904 52.6885V54.2126H47.5627H35.435V52.7469V51.2814L35.7871 51.3766C42.2091 53.1151 52.8175 53.0944 58.6732 51.332C59.6985 51.0233 59.6904 51.0125 59.6904 52.6885ZM67.4626 56.7105C67.8275 57.0162 67.8921 57.1813 67.8658 57.7392C67.8356 58.3783 66.2143 73.4938 66.0168 74.9777L65.9204 75.7017H48.1769H30.4334L30.3603 75.3588C30.3201 75.1701 29.8938 71.3124 29.413 66.786C28.9319 62.2595 28.4981 58.2668 28.4488 57.9133C28.3692 57.3425 28.4124 57.2184 28.8335 56.8083L29.3079 56.3462H48.1678H67.0277L67.4626 56.7105ZM46.3108 62.182C42.3101 64.0482 43.3171 69.8086 47.7322 70.3131C51.5795 70.7526 54.016 66.1581 51.4831 63.2395C50.3215 61.9011 47.9517 61.4166 46.3108 62.182ZM49.1961 64.2449C50.2197 64.7796 50.601 66.1527 49.9951 67.1207C48.8955 68.877 46.0751 68.1828 46.0767 66.1562C46.0779 64.446 47.6901 63.4584 49.1961 64.2449Z" fill="#FFD042"/>
</svg>
