<svg width="54" height="39" viewBox="0 0 54 39" fill="none" xmlns="http://www.w3.org/2000/svg">
<path fill-rule="evenodd" clip-rule="evenodd" d="M3.74043 0.904986C1.87126 1.29337 0.419166 2.76296 0.107843 4.58144C-0.0359478 5.42084 -0.0359478 33.9434 0.107843 34.7828C0.423667 36.627 1.87317 38.0748 3.7932 38.4641C4.9235 38.6931 47.2667 38.696 48.396 38.4671C51.1652 37.9056 52.0864 36.4438 52.1946 32.4387L52.2615 29.9677L52.6423 29.8935C54.0033 29.628 54 29.6525 54 19.6821C54 9.71167 54.0033 9.73621 52.6423 9.47072L52.2615 9.39646L52.1942 6.87171C52.1412 4.88599 52.0864 4.24428 51.9373 3.86623C51.3099 2.27417 50.073 1.23709 48.396 0.89713C47.3041 0.675766 4.80761 0.683298 3.74043 0.904986ZM48.2586 4.46414L48.6048 4.74276V7.03959V9.33652L41.6009 9.38021C33.9115 9.4281 33.885 9.43015 32.0654 10.1177C23.9898 13.1691 22.8666 23.7371 30.1359 28.2711C32.6941 29.8666 33.1138 29.9293 41.6009 29.9839L48.6048 30.029V32.3252V34.6214L48.2586 34.9001L47.9125 35.1787H26.1022H4.29197L3.94588 34.9001L3.59968 34.6214V19.6821V4.74276L3.94588 4.46414L4.29197 4.18553H26.1022H47.9125L48.2586 4.46414ZM50.405 19.6855V26.5764L42.3885 26.546L34.3719 26.5157L33.6134 26.2334C27.5808 23.9885 27.0805 16.1836 32.7967 13.4908C34.2791 12.7925 34.0352 12.8096 42.6135 12.8018L50.405 12.7947V19.6855ZM35.1636 14.6364C30.9502 15.2232 29.1903 20.3711 32.214 23.2633C34.8105 25.7468 39.166 25.0644 40.7749 21.9221C42.672 18.2169 39.4541 14.0389 35.1636 14.6364ZM37.0938 18.2595C38.1471 18.9768 37.9956 20.714 36.8339 21.2413C35.1361 22.012 33.4311 20.0964 34.5167 18.6381C35.0407 17.9343 36.3368 17.744 37.0938 18.2595ZM8.56318 28.3994C6.87054 28.7814 6.91093 31.2539 8.61606 31.6321C9.18965 31.7594 16.0117 31.7594 16.5853 31.6321C18.3275 31.2457 18.3275 28.7806 16.5853 28.3942C16.0474 28.2748 9.09491 28.2793 8.56318 28.3994Z" fill="#FFD042"/>
</svg>
