<svg width="44" height="44" viewBox="0 0 44 44" fill="none" xmlns="http://www.w3.org/2000/svg">
<path fill-rule="evenodd" clip-rule="evenodd" d="M11.1887 1.25414C10.2921 1.64416 10.0353 2.16984 9.98415 3.72074L9.94466 4.9163L7.58135 4.96173C3.19968 5.04613 1.01632 6.39929 0.185402 9.54533L0 10.2474V24.3753V38.5031L0.185402 39.2052C0.738786 41.3004 2.49841 43.0057 4.65911 43.5409L5.38906 43.7217H22H38.6109L39.3359 43.5421C41.4996 43.0063 43.2607 41.3023 43.8133 39.21L44 38.5031V24.3753V10.2474L43.8146 9.54533C42.9841 6.4012 40.8052 5.05132 36.4187 4.96355L34.0553 4.9163L34.0159 3.72074C33.8944 0.0381839 30.0855 0.0404601 30.0855 3.72302V4.93779H27.0299H23.9744L23.9738 3.86805C23.9729 1.95698 23.3659 1.12222 21.9727 1.11603C20.6401 1.11011 20.0271 1.97683 20.0262 3.86805L20.0256 4.93779H16.9701H13.9145V3.72302C13.9145 1.63297 12.7477 0.57606 11.1887 1.25414ZM9.98001 10.0143L10.0155 11.267L10.2752 11.6962C11.5324 13.7735 13.9079 12.6447 13.9125 9.96786L13.9145 8.76155H16.9612H20.008L20.0403 10.0589C20.1346 13.844 23.972 13.6663 23.9738 9.87682L23.9744 8.76155H27.0299H30.0855L30.0875 9.96786C30.0921 12.6386 32.4675 13.7737 33.7202 11.7038L33.9752 11.2823L34.017 10.0147L34.0587 8.74717L36.2324 8.77749L38.406 8.80771L38.7821 9.00427C39.9884 9.63474 40.0513 9.85934 40.0513 13.5383V16.5912H22H3.94872V13.5383C3.94872 10.1719 3.96066 10.0909 4.54112 9.50491C5.19727 8.84249 5.4765 8.78249 7.95732 8.77084L9.94447 8.76155L9.98001 10.0143ZM40.0513 29.2582C40.0513 35.961 40.0235 38.1921 39.9364 38.4762C39.7852 38.9689 39.0919 39.6403 38.5831 39.7867C37.9443 39.9704 5.78309 39.9461 5.32691 39.7615C4.83549 39.5627 4.37245 39.134 4.14662 38.6688L3.94872 38.2612V29.338V20.4149H22H40.0513V29.2582ZM27.265 24.5643C27.0607 24.649 25.6263 25.9674 23.4825 28.041L20.0291 31.3812L18.5906 29.9986C17.7294 29.1709 17.013 28.5597 16.8055 28.4758C15.2818 27.8592 13.6813 29.206 14.1378 30.7205L14.2835 31.2034L16.661 33.4939C19.4358 36.1672 19.6497 36.2867 20.7778 35.7946C21.2868 35.5725 29.288 27.9009 29.6845 27.2547C30.608 25.7497 28.9235 23.8767 27.265 24.5643Z" fill="#FFD042"/>
</svg>
