<svg width="31" height="30" viewBox="0 0 31 30" fill="none" xmlns="http://www.w3.org/2000/svg">
<ellipse cx="15.3452" cy="14.9134" rx="15.3452" ry="14.9134" fill="#48C95F"/>
<path d="M21.4272 8.99479C19.9114 7.52676 17.8903 6.71118 15.7569 6.71118C11.3218 6.71118 7.72876 10.191 7.72876 14.4863C7.72876 15.8456 8.12175 17.2049 8.79544 18.3467L7.67262 22.3702L11.9393 21.2828C13.1183 21.8809 14.4095 22.2071 15.7569 22.2071C20.1921 22.2071 23.7851 18.7273 23.7851 14.432C23.729 12.4202 22.943 10.4628 21.4272 8.99479ZM19.6307 17.2593C19.4622 17.6942 18.6763 18.1292 18.2833 18.1836C17.9464 18.238 17.4973 18.238 17.0482 18.1292C16.7675 18.0205 16.3745 17.9117 15.9254 17.6942C13.9043 16.8787 12.613 14.9213 12.5008 14.7582C12.3885 14.6494 11.6586 13.7251 11.6586 12.7464C11.6586 11.7677 12.1639 11.3328 12.3323 11.1153C12.5008 10.8978 12.7253 10.8978 12.8937 10.8978C13.006 10.8978 13.1744 10.8978 13.2867 10.8978C13.399 10.8978 13.5674 10.8434 13.7359 11.224C13.9043 11.6046 14.2973 12.5833 14.3534 12.6377C14.4095 12.7464 14.4095 12.8552 14.3534 12.9639C14.2973 13.0727 14.2411 13.1814 14.1288 13.2901C14.0166 13.3989 13.9043 13.562 13.8481 13.6164C13.7359 13.7251 13.6236 13.8339 13.7359 13.997C13.8481 14.2145 14.2411 14.8125 14.8587 15.3563C15.6446 16.0087 16.2622 16.2262 16.4868 16.335C16.7113 16.4437 16.8236 16.3893 16.9359 16.2806C17.0482 16.1718 17.4412 15.7369 17.5534 15.5194C17.6657 15.3019 17.8341 15.3563 18.0026 15.4106C18.171 15.465 19.1815 15.9544 19.35 16.0631C19.5745 16.1718 19.6868 16.2262 19.7429 16.2806C19.7991 16.4437 19.7991 16.8243 19.6307 17.2593Z" fill="white"/>
</svg>
